<?xml version="1.0" encoding="UTF-8" standalone="no"?>
<!DOCTYPE svg PUBLIC "-//W3C//DTD SVG 1.1//EN"
 "http://www.w3.org/Graphics/SVG/1.1/DTD/svg11.dtd">
<!-- Generated by graphviz version 14.1.5 (0)
 -->
<!-- Title: lesl Pages: 1 -->
<svg width="1114pt" height="520pt"
 viewBox="0.00 0.00 1114.00 520.00" xmlns="http://www.w3.org/2000/svg" xmlns:xlink="http://www.w3.org/1999/xlink">
<g id="graph0" class="graph" transform="scale(1 1) rotate(0) translate(4 515.5)">
<title>lesl</title>
<polygon fill="white" stroke="none" points="-4,4 -4,-515.5 1110.25,-515.5 1110.25,4 -4,4"/>
<g id="clust1" class="cluster">
<title>cluster_examples</title>
<polygon fill="none" stroke="black" points="583.25,-8 583.25,-196.5 1098.25,-196.5 1098.25,-8 583.25,-8"/>
<text xml:space="preserve" text-anchor="middle" x="840.75" y="-179.2" font-family="Times,serif" font-size="14.00">Examples</text>
</g>
<g id="clust2" class="cluster">
<title>cluster_tests</title>
<polygon fill="none" stroke="black" points="346.25,-117 346.25,-196.5 575.25,-196.5 575.25,-117 346.25,-117"/>
<text xml:space="preserve" text-anchor="middle" x="460.75" y="-179.2" font-family="Times,serif" font-size="14.00">Tests</text>
</g>
<!-- node2 -->
<g id="node1" class="node">
<title>node2</title>
<polygon fill="none" stroke="black" points="221.15,-252.04 221.15,-266.96 196.02,-277.5 160.48,-277.5 135.35,-266.96 135.35,-252.04 160.48,-241.5 196.02,-241.5 221.15,-252.04"/>
<text xml:space="preserve" text-anchor="middle" x="178.25" y="-256.73" font-family="Times,serif" font-size="12.00">glslang</text>
</g>
<!-- node29 -->
<g id="node10" class="node">
<title>node29</title>
<polygon fill="none" stroke="black" points="140.5,-161 0,-161 0,-125 140.5,-125 140.5,-161"/>
<text xml:space="preserve" text-anchor="middle" x="70.25" y="-140.22" font-family="Times,serif" font-size="12.00">lesl&#45;glslang&#45;comparer</text>
</g>
<!-- node2&#45;&gt;node29 -->
<g id="edge6" class="edge">
<title>node2&#45;&gt;node29</title>
<path fill="none" stroke="black" d="M161.85,-241.11C143.82,-222 114.7,-191.13 94.14,-169.33"/>
<polygon fill="black" stroke="black" points="96.9,-167.15 87.49,-162.28 91.81,-171.96 96.9,-167.15"/>
</g>
<!-- node3 -->
<g id="node2" class="node">
<title>node3</title>
<polygon fill="none" stroke="black" points="346.73,-365.04 346.73,-379.96 299.59,-390.5 232.91,-390.5 185.77,-379.96 185.77,-365.04 232.91,-354.5 299.59,-354.5 346.73,-365.04"/>
<polygon fill="none" stroke="black" points="350.73,-361.84 350.73,-383.16 300.03,-394.5 232.47,-394.5 181.77,-383.16 181.77,-361.84 232.47,-350.5 300.03,-350.5 350.73,-361.84"/>
<text xml:space="preserve" text-anchor="middle" x="266.25" y="-369.73" font-family="Times,serif" font-size="12.00">SPIRV&#45;Tools&#45;opt</text>
</g>
<!-- node3&#45;&gt;node2 -->
<g id="edge2" class="edge">
<title>node3&#45;&gt;node2</title>
<path fill="none" stroke="black" stroke-width="2" d="M249.28,-350.1C234.95,-332.02 214.36,-306.05 199.04,-286.72"/>
<polygon fill="black" stroke="black" stroke-width="2" points="202.82,-285.86 193.87,-280.2 197.34,-290.21 202.82,-285.86"/>
</g>
<!-- node23 -->
<g id="node7" class="node">
<title>node23</title>
<polygon fill="none" stroke="black" points="336.25,-252.04 336.25,-266.96 320.43,-277.5 298.07,-277.5 282.25,-266.96 282.25,-252.04 298.07,-241.5 320.43,-241.5 336.25,-252.04"/>
<text xml:space="preserve" text-anchor="middle" x="309.25" y="-256.73" font-family="Times,serif" font-size="12.00">lesl</text>
</g>
<!-- node3&#45;&gt;node23 -->
<g id="edge4" class="edge">
<title>node3&#45;&gt;node23</title>
<path fill="none" stroke="black" stroke-dasharray="1,5" d="M274.54,-350.1C281.35,-332.51 291.06,-307.46 298.47,-288.32"/>
<polygon fill="black" stroke="black" points="301.64,-289.83 301.99,-279.24 295.11,-287.3 301.64,-289.83"/>
</g>
<!-- node4 -->
<g id="node3" class="node">
<title>node4</title>
<polygon fill="none" stroke="black" points="329.65,-482.04 329.65,-496.96 292.51,-507.5 239.99,-507.5 202.85,-496.96 202.85,-482.04 239.99,-471.5 292.51,-471.5 329.65,-482.04"/>
<polygon fill="none" stroke="black" points="333.65,-479.02 333.65,-499.98 293.07,-511.5 239.43,-511.5 198.85,-499.98 198.85,-479.02 239.43,-467.5 293.07,-467.5 333.65,-479.02"/>
<text xml:space="preserve" text-anchor="middle" x="266.25" y="-486.73" font-family="Times,serif" font-size="12.00">SPIRV&#45;Tools</text>
</g>
<!-- node4&#45;&gt;node3 -->
<g id="edge1" class="edge">
<title>node4&#45;&gt;node3</title>
<path fill="none" stroke="black" d="M266.25,-467.14C266.25,-450.03 266.25,-425.75 266.25,-406.2"/>
<polygon fill="black" stroke="black" points="269.75,-406.26 266.25,-396.26 262.75,-406.26 269.75,-406.26"/>
</g>
<!-- node10 -->
<g id="node4" class="node">
<title>node10</title>
<polygon fill="none" stroke="black" points="657.58,-252.04 657.58,-266.96 632.78,-277.5 597.72,-277.5 572.92,-266.96 572.92,-252.04 597.72,-241.5 632.78,-241.5 657.58,-252.04"/>
<text xml:space="preserve" text-anchor="middle" x="615.25" y="-256.73" font-family="Times,serif" font-size="12.00">assimp</text>
</g>
<!-- node31 -->
<g id="node12" class="node">
<title>node31</title>
<polygon fill="none" stroke="black" points="661.62,-161 590.88,-161 590.88,-125 661.62,-125 661.62,-161"/>
<text xml:space="preserve" text-anchor="middle" x="626.25" y="-140.22" font-family="Times,serif" font-size="12.00">sdl3&#45;cube</text>
</g>
<!-- node10&#45;&gt;node31 -->
<g id="edge15" class="edge">
<title>node10&#45;&gt;node31</title>
<path fill="none" stroke="black" d="M616.92,-241.11C617.8,-231.95 618.94,-220.09 620.12,-207.82"/>
<polygon fill="black" stroke="black" points="623.59,-208.29 621.06,-198 616.62,-207.62 623.59,-208.29"/>
</g>
<!-- node13 -->
<g id="node5" class="node">
<title>node13</title>
<polygon fill="none" stroke="black" points="732.91,-252.04 732.91,-266.96 716.12,-277.5 692.38,-277.5 675.59,-266.96 675.59,-252.04 692.38,-241.5 716.12,-241.5 732.91,-252.04"/>
<text xml:space="preserve" text-anchor="middle" x="704.25" y="-256.73" font-family="Times,serif" font-size="12.00">glm</text>
</g>
<!-- node13&#45;&gt;node31 -->
<g id="edge16" class="edge">
<title>node13&#45;&gt;node31</title>
<path fill="none" stroke="black" d="M692.4,-241.11C685.84,-231.48 677.25,-218.87 668.44,-205.93"/>
<polygon fill="black" stroke="black" points="671.39,-204.04 662.86,-197.75 665.6,-207.98 671.39,-204.04"/>
</g>
<!-- node20 -->
<g id="node6" class="node">
<title>node20</title>
<polygon fill="none" stroke="black" points="484.94,-252.04 484.94,-266.96 448.8,-277.5 397.7,-277.5 361.56,-266.96 361.56,-252.04 397.7,-241.5 448.8,-241.5 484.94,-252.04"/>
<text xml:space="preserve" text-anchor="middle" x="423.25" y="-256.73" font-family="Times,serif" font-size="12.00">Google Test</text>
</g>
<!-- node41 -->
<g id="node22" class="node">
<title>node41</title>
<polygon fill="none" stroke="black" points="463.75,-161 354.75,-161 354.75,-125 463.75,-125 463.75,-161"/>
<text xml:space="preserve" text-anchor="middle" x="409.25" y="-140.22" font-family="Times,serif" font-size="12.00">test&#45;compilation</text>
</g>
<!-- node20&#45;&gt;node41 -->
<g id="edge18" class="edge">
<title>node20&#45;&gt;node41</title>
<path fill="none" stroke="black" d="M421.12,-241.11C420,-231.95 418.55,-220.09 417.05,-207.82"/>
<polygon fill="black" stroke="black" points="420.54,-207.5 415.85,-198 413.59,-208.35 420.54,-207.5"/>
</g>
<!-- node28 -->
<g id="node9" class="node">
<title>node28</title>
<polygon fill="none" stroke="black" points="263.88,-161 158.62,-161 158.62,-125 263.88,-125 263.88,-161"/>
<text xml:space="preserve" text-anchor="middle" x="211.25" y="-140.22" font-family="Times,serif" font-size="12.00">lesl&#45;benchmark</text>
</g>
<!-- node23&#45;&gt;node28 -->
<g id="edge5" class="edge">
<title>node23&#45;&gt;node28</title>
<path fill="none" stroke="black" d="M295.62,-242.58C279.54,-223.78 252.56,-192.27 233.45,-169.93"/>
<polygon fill="black" stroke="black" points="236.19,-167.75 227.03,-162.43 230.87,-172.3 236.19,-167.75"/>
</g>
<!-- node23&#45;&gt;node29 -->
<g id="edge7" class="edge">
<title>node23&#45;&gt;node29</title>
<path fill="none" stroke="black" d="M283.85,-250.56C251.66,-240.07 194.88,-220.14 149.25,-196.5 133.33,-188.25 116.66,-177.52 102.76,-167.92"/>
<polygon fill="black" stroke="black" points="105.06,-165.25 94.86,-162.36 101.03,-170.97 105.06,-165.25"/>
</g>
<!-- node30 -->
<g id="node11" class="node">
<title>node30</title>
<polygon fill="none" stroke="black" points="336.25,-161 282.25,-161 282.25,-125 336.25,-125 336.25,-161"/>
<text xml:space="preserve" text-anchor="middle" x="309.25" y="-140.22" font-family="Times,serif" font-size="12.00">leslc</text>
</g>
<!-- node23&#45;&gt;node30 -->
<g id="edge8" class="edge">
<title>node23&#45;&gt;node30</title>
<path fill="none" stroke="black" stroke-width="2" d="M309.25,-241.11C309.25,-222.93 309.25,-194.11 309.25,-172.58"/>
<polygon fill="black" stroke="black" stroke-width="2" points="312.75,-174.21 309.25,-164.21 305.75,-174.21 312.75,-174.21"/>
</g>
<!-- node23&#45;&gt;node31 -->
<g id="edge17" class="edge">
<title>node23&#45;&gt;node31</title>
<path fill="none" stroke="black" d="M331.77,-248.81C338.3,-246.22 345.49,-243.56 352.25,-241.5 425.37,-219.15 444.97,-217.87 520.25,-204.5 542.74,-200.51 552.95,-206.69 572.93,-198.98"/>
<polygon fill="black" stroke="black" points="574.29,-202.21 581.88,-194.82 571.34,-195.87 574.29,-202.21"/>
</g>
<!-- node23&#45;&gt;node41 -->
<g id="edge19" class="edge">
<title>node23&#45;&gt;node41</title>
<path fill="none" stroke="black" d="M322.74,-243.06C331.55,-232.97 343.69,-219.06 356.09,-204.86"/>
<polygon fill="black" stroke="black" points="358.47,-207.47 362.41,-197.64 353.19,-202.86 358.47,-207.47"/>
</g>
<!-- node25 -->
<g id="node8" class="node">
<title>node25</title>
<polygon fill="none" stroke="black" points="496.18,-365.04 496.18,-379.96 475.72,-390.5 446.78,-390.5 426.32,-379.96 426.32,-365.04 446.78,-354.5 475.72,-354.5 496.18,-365.04"/>
<polygon fill="none" stroke="black" points="500.18,-362.61 500.18,-382.39 476.69,-394.5 445.81,-394.5 422.32,-382.39 422.32,-362.61 445.81,-350.5 476.69,-350.5 500.18,-362.61"/>
<text xml:space="preserve" text-anchor="middle" x="461.25" y="-369.73" font-family="Times,serif" font-size="12.00">SDL3</text>
</g>
<!-- node25&#45;&gt;node23 -->
<g id="edge3" class="edge">
<title>node25&#45;&gt;node23</title>
<path fill="none" stroke="black" stroke-dasharray="1,5" d="M437.83,-354.4C410.3,-334.29 364.71,-301 335.86,-279.93"/>
<polygon fill="black" stroke="black" points="338.13,-277.26 327.99,-274.19 334,-282.91 338.13,-277.26"/>
</g>
<!-- node25&#45;&gt;node31 -->
<g id="edge14" class="edge">
<title>node25&#45;&gt;node31</title>
<path fill="none" stroke="black" d="M476.77,-350.1C500.53,-317.35 546.8,-253.55 581.6,-205.56"/>
<polygon fill="black" stroke="black" points="584.25,-207.87 587.29,-197.72 578.58,-203.76 584.25,-207.87"/>
</g>
<!-- node35 -->
<g id="node16" class="node">
<title>node35</title>
<polygon fill="none" stroke="black" points="675,-52 591.5,-52 591.5,-16 675,-16 675,-52"/>
<text xml:space="preserve" text-anchor="middle" x="633.25" y="-31.23" font-family="Times,serif" font-size="12.00">sdl3&#45;outline</text>
</g>
<!-- node31&#45;&gt;node35 -->
<g id="edge9" class="edge">
<title>node31&#45;&gt;node35</title>
<polygon fill="black" stroke="black" points="632.13,-52.15 632.13,-52.15 632.13,-52.15 632.13,-52.15"/>
</g>
<!-- node36 -->
<g id="node17" class="node">
<title>node36</title>
<polygon fill="none" stroke="black" points="757.25,-52 693.25,-52 693.25,-16 757.25,-16 757.25,-52"/>
<text xml:space="preserve" text-anchor="middle" x="725.25" y="-31.23" font-family="Times,serif" font-size="12.00">sdl3&#45;pbr</text>
</g>
<!-- node31&#45;&gt;node36 -->
<g id="edge10" class="edge">
<title>node31&#45;&gt;node36</title>
<polygon fill="black" stroke="black" points="709.38,-52.15 709.38,-52.15 709.38,-52.15 709.38,-52.15"/>
</g>
<!-- node37 -->
<g id="node18" class="node">
<title>node37</title>
<polygon fill="none" stroke="black" points="865.38,-52 775.12,-52 775.12,-16 865.38,-16 865.38,-52"/>
<text xml:space="preserve" text-anchor="middle" x="820.25" y="-31.23" font-family="Times,serif" font-size="12.00">sdl3&#45;swizzles</text>
</g>
<!-- node31&#45;&gt;node37 -->
<g id="edge11" class="edge">
<title>node31&#45;&gt;node37</title>
<polygon fill="black" stroke="black" points="787.98,-52.44 787.98,-52.44 787.98,-52.44 787.98,-52.44"/>
</g>
<!-- node38 -->
<g id="node19" class="node">
<title>node38</title>
<polygon fill="none" stroke="black" points="969.12,-52 883.38,-52 883.38,-16 969.12,-16 969.12,-52"/>
<text xml:space="preserve" text-anchor="middle" x="926.25" y="-31.23" font-family="Times,serif" font-size="12.00">sdl3&#45;texture</text>
</g>
<!-- node31&#45;&gt;node38 -->
<g id="edge12" class="edge">
<title>node31&#45;&gt;node38</title>
<polygon fill="black" stroke="black" points="883.13,-49.13 883.13,-49.13 883.13,-49.13 883.13,-49.13"/>
</g>
<!-- node39 -->
<g id="node20" class="node">
<title>node39</title>
<polygon fill="none" stroke="black" points="1056.88,-52 987.62,-52 987.62,-16 1056.88,-16 1056.88,-52"/>
<text xml:space="preserve" text-anchor="middle" x="1022.25" y="-31.23" font-family="Times,serif" font-size="12.00">sdl3&#45;time</text>
</g>
<!-- node31&#45;&gt;node39 -->
<g id="edge13" class="edge">
<title>node31&#45;&gt;node39</title>
<polygon fill="black" stroke="black" points="987.36,-49.06 987.36,-49.06 987.36,-49.06 987.36,-49.06"/>
</g>
<!-- node32 -->
<g id="node13" class="node">
<title>node32</title>
<polygon fill="none" stroke="black" points="733.25,-161 679.25,-161 679.25,-125 733.25,-125 733.25,-161"/>
<text xml:space="preserve" text-anchor="middle" x="706.25" y="-140.22" font-family="Times,serif" font-size="12.00">sdl3&#45;if</text>
</g>
<!-- node33 -->
<g id="node14" class="node">
<title>node33</title>
<polygon fill="none" stroke="black" points="844.88,-161 751.62,-161 751.62,-125 844.88,-125 844.88,-161"/>
<text xml:space="preserve" text-anchor="middle" x="798.25" y="-140.22" font-family="Times,serif" font-size="12.00">sdl3&#45;matrices</text>
</g>
<!-- node34 -->
<g id="node15" class="node">
<title>node34</title>
<polygon fill="none" stroke="black" points="983.75,-161 862.75,-161 862.75,-125 983.75,-125 983.75,-161"/>
<text xml:space="preserve" text-anchor="middle" x="923.25" y="-140.22" font-family="Times,serif" font-size="12.00">sdl3&#45;multipipeline</text>
</g>
<!-- node40 -->
<g id="node21" class="node">
<title>node40</title>
<polygon fill="none" stroke="black" points="1090.62,-161 1001.88,-161 1001.88,-125 1090.62,-125 1090.62,-161"/>
<text xml:space="preserve" text-anchor="middle" x="1046.25" y="-140.22" font-family="Times,serif" font-size="12.00">sdl3&#45;triangle</text>
</g>
<!-- node42 -->
<g id="node23" class="node">
<title>node42</title>
<polygon fill="none" stroke="black" points="567.12,-161 481.38,-161 481.38,-125 567.12,-125 567.12,-161"/>
<text xml:space="preserve" text-anchor="middle" x="524.25" y="-140.22" font-family="Times,serif" font-size="12.00">test&#45;capture</text>
</g>
</g>
</svg>
